<?xml version="1.0" encoding="utf-8"?>
<!-- Generator: Adobe Illustrator 16.0.0, SVG Export Plug-In . SVG Version: 6.00 Build 0)  -->
<!DOCTYPE svg PUBLIC "-//W3C//DTD SVG 1.1//EN" "http://www.w3.org/Graphics/SVG/1.1/DTD/svg11.dtd">
<svg version="1.1" id="logo" xmlns="http://www.w3.org/2000/svg" xmlns:xlink="http://www.w3.org/1999/xlink" x="0px" y="0px"
	 viewBox="0 0 607.23 448.29" style="enable-background:new 0 0 607.23 448.29;"
	 xml:space="preserve">

<defs>
	
	<style type="text/css">

	.st0{
		fill:none;
		stroke:#000000;
		stroke-width:5;
		stroke-miterlimit:10;
	}

	.st0{
		stroke-dasharray: 1500;
		stroke-dashoffset: 0;
		-webkit-animamtion: dash 2 linear forwards;
		animation: dash 2s linear forwards;
	}

	@-webkit-keyframes dash{
		from{
			stroke-dashoffset: 1500;
		}
		to{
			stroke-dashoffset: 0;
			fill: red;
		}
	}


</style>

</defs>



<g>
	<path class="st0" d="M245.41,33.63c-6.66-6.38-16.59-9.93-25.24-9.93C198.9,23.7,186,39.87,186,60.29
		c0,16.31,9.5,33.18,34.17,33.18c7.8,0,14.61-1.7,22.4-7.94V67.94h-25.38V51.21h42.54v41.83c-9.78,11.2-22.12,17.87-39.56,17.87
		c-37.29,0-52.47-24.53-52.47-50.62c0-27.93,17.44-53.74,52.47-53.74c13.33,0,26.66,5.1,36.87,15.17L245.41,33.63z"/>
	<path class="st0" d="M349.06,108.64h-74.3c0-33.04,0-66.22,0-99.26h74.3v18.15h-55.73v22.83h53.74V67.8h-53.74v22.4h55.73V108.64z"
		/>
	<path class="st0" d="M395,26.4h-31.48V9.38c28.64,0,52.89,0,81.68,0V26.4h-31.48v82.24H395V26.4z"/>
</g>
<g>
	<path class="st0" d="M174.79,292.99H151.5l-18.09-45.75l-15.39-45.96l-15.18,46.37l-17.68,45.33H61.88L8.44,147.43h30.78
		l34.31,105.01l35.35-105.01h17.88l36.39,105.01l33.27-105.01h30.78L174.79,292.99z"/>
	<path class="st0" d="M352.59,292.99H243.63c0-48.45,0-97.11,0-145.56h108.96v26.62h-81.72v33.48h78.81v25.58h-78.81v32.86h81.72
		V292.99z"/>
	<path class="st0" d="M401.26,147.43v120.19h74.86v25.37H373.81V147.43H401.26z"/>
	<path class="st0" d="M522.91,147.43v120.19h74.86v25.37H495.46V147.43H522.91z"/>
</g>
<g>
	<path class="st0" d="M166.64,353.19c-3.4-5.67-12.76-11.06-23.54-11.06c-13.89,0-20.56,5.81-20.56,13.19
		c0,8.65,10.21,11.06,22.12,12.48c20.7,2.55,39.98,7.94,39.98,31.62c0,22.12-19.57,31.62-41.68,31.62
		c-20.28,0-35.87-6.24-43.24-24.39l15.6-8.08c4.39,10.92,15.88,15.74,27.93,15.74c11.77,0,22.83-4.11,22.83-14.89
		c0-9.36-9.78-13.19-22.97-14.6c-20.27-2.41-38.99-7.8-38.99-30.06c0-20.42,20.13-28.78,38.42-28.92c15.45,0,31.48,4.4,38.99,19.71
		L166.64,353.19z"/>
	<path class="st0" d="M296.66,379.42c-0.28,25.66-16.02,51.33-50.9,51.33s-51.04-25.1-51.04-51.18c0-26.09,16.73-52.32,51.04-52.32
		C279.93,327.24,296.95,353.47,296.66,379.42z M213.15,379.84c0.43,16.3,9.22,33.74,32.61,33.74s32.19-17.58,32.47-33.89
		c0.28-16.73-9.07-35.45-32.47-35.45S212.73,363.11,213.15,379.84z"/>
	<path class="st0" d="M407.97,379.42c-0.28,25.66-16.02,51.33-50.9,51.33s-51.04-25.1-51.04-51.18c0-26.09,16.73-52.32,51.04-52.32
		C391.24,327.24,408.25,353.47,407.97,379.42z M324.46,379.84c0.43,16.3,9.22,33.74,32.61,33.74s32.19-17.58,32.47-33.89
		c0.28-16.73-9.07-35.45-32.47-35.45S324.03,363.11,324.46,379.84z"/>
	<path class="st0" d="M486.94,329.08h18.72v99.39h-11.63v0.14l-52.18-67.06v66.92h-18.72v-99.25h15.17l48.63,61.53V329.08z"/>
</g>
</svg>
